<svg xmlns="http://www.w3.org/2000/svg" viewBox="0 0 199.99 182.28"><g id="Layer_2" data-name="Layer 2"><g id="Atom"><path d="M170.73,66.35C152.54,58.6,128.1,53.6,102,52.23c-4.16-.25-8.22-.34-12.08-.34,19.32-23.58,40-39.41,53.64-39.91a11.45,11.45,0,0,1,6.78,1.63c5.88,3.82,7.54,14.73,4.54,29.92a3.93,3.93,0,0,0,3,4.5,3.82,3.82,0,0,0,4.5-3c3.75-19,1-32-7.84-37.82a18.93,18.93,0,0,0-11.25-2.88C126.19,5,102.11,23.49,80,52A216.27,216.27,0,0,0,53.1,54.38C47.71,30.24,49.85,12.91,58,8.74a9.77,9.77,0,0,1,3.81-1C67.66,7.26,75.69,11,84.44,18.29a3.82,3.82,0,1,0,4.88-5.87C78.82,3.72,69.14-.53,61.22.05a18.69,18.69,0,0,0-6.69,1.84C44.61,6.94,40.61,21.28,43.11,42.2c.59,4.33,1.34,8.85,2.42,13.5C18.19,61.17.77,72.12,0,85.9c-.5,9.75,7.21,19,22.34,26.85a3.82,3.82,0,1,0,3.49-6.8C13.77,99.73,7.27,92.71,7.66,86.3c.42-9,14.77-18.25,39.67-23.17a225.83,225.83,0,0,0,8.75,25.75c-8.48,15.73-14.63,31.22-17.81,45C33.6,154.42,36.1,169,45.44,175.11A18.72,18.72,0,0,0,55.83,178c7.79,0,17.22-3.84,27.89-11.44a3.81,3.81,0,1,0-4.42-6.21c-12.86,9.19-23.7,12.26-29.68,8.36-6.33-4.13-7.72-16.2-3.83-33.14,2.66-11.55,7.56-24.41,14.23-37.66q2.5,5.48,5.25,10.94c11.87,23.3,26.41,43.56,40.91,57,11.55,10.75,22.29,16.36,31.13,16.36a18.11,18.11,0,0,0,8.13-1.86c9.54-4.88,13.67-18.42,11.65-38.12-1.87-18.45-8.83-40.92-19.62-63.33a3.83,3.83,0,0,0-6.91,3.3C153,129,154.56,167.18,142,173.59c-13.25,6.78-45.19-19.62-69.91-68.16-2.83-5.46-5.31-10.83-7.5-16.08,2.83-5.07,5.83-10.17,9.13-15.25s6.71-9.9,10.2-14.54h3.28c4.5,0,9.38.08,14.45.4,54.41,2.86,91.45,21.33,90.69,36.11-.33,6.38-7.7,12.82-20.2,17.67a3.87,3.87,0,0,0-2.17,5,3.8,3.8,0,0,0,3.55,2.43,4.07,4.07,0,0,0,1.39-.25c15.87-6.17,24.58-14.63,25.08-24.42.59-11.08-9.75-21.75-29.16-30v-.08ZM67.27,69.88C65,73.34,62.94,76.77,60.9,80.25c-2.43-6.4-4.43-12.58-6-18.46,5.94-.92,12.37-1.58,19.25-2-2.34,3.25-4.62,6.62-6.84,10.08v-.08Z"/><circle cx="99.98" cy="91.13" r="11.46"/></g></g></svg>