<svg xmlns="http://www.w3.org/2000/svg" viewBox="0 0 198 198"><g id="Layer_2" data-name="Layer 2"><g id="JavaScript"><path d="M0,0H198V198H0ZM181.78,150.78c-1.44-9-7.33-16.63-24.77-23.71-6.08-2.84-12.82-4.82-14.83-9.4-.75-2.72-.87-4.21-.38-5.82,1.24-5.33,7.55-6.93,12.5-5.44a13.39,13.39,0,0,1,8,7.42c8.53-5.57,8.53-5.57,14.48-9.28A34.11,34.11,0,0,0,172,98.12c-5.2-5.82-12.12-8.79-23.38-8.53l-5.82.73c-5.58,1.36-10.89,4.33-14.11,8.29-9.4,10.65-6.69,29.22,4.7,36.89,11.26,8.41,27.72,10.26,29.83,18.19,2,9.65-7.18,12.75-16.22,11.63-6.69-1.48-10.4-4.83-14.48-11L117.42,163c1.73,4,3.71,5.68,6.68,9.15,14.36,14.49,50.25,13.74,56.69-8.28.24-.75,2-5.82.61-13.62ZM107.67,91H89.12c0,16-.07,31.87-.07,47.89,0,10.16.52,19.49-1.14,22.36-2.72,5.69-9.73,5-12.92,4-3.26-1.61-4.92-3.84-6.84-7.05a7,7,0,0,0-1.05-1.62L52,165.83A29.25,29.25,0,0,0,63,178.35c7.06,4.21,16.54,5.57,26.46,3.34,6.46-1.86,12-5.7,14.94-11.64,4.21-7.67,3.32-17.08,3.28-27.61.1-16.94,0-33.89,0-51Z"/></g></g></svg>