<svg xmlns="http://www.w3.org/2000/svg" viewBox="0 0 190 190"><g id="Layer_2" data-name="Layer 2"><g id="SASS"><path d="M95,0A95,95,0,1,1,0,95,95,95,0,0,1,95,0ZM76.12,126.65a24.38,24.38,0,0,1-.19,14.19l-.52,1.42c-.19.49-.41,1-.61,1.4a26.62,26.62,0,0,1-4.4,6.41c-5.52,6-13.23,8.29-16.54,6.37-3.57-2.07-1.79-10.57,4.62-17.34,6.9-7.26,16.78-11.94,16.78-11.94v0Zm78.46-86c-4.29-16.89-32.28-22.44-58.76-13C80.08,33.24,63,42,50.75,53.51,36.16,67.13,33.84,79,34.8,84c3.38,17.51,27.37,29,37.23,37.45v0c-2.9,1.42-24.19,12.1-29.18,23.15-5.34,11.64.83,20,4.87,21,12.47,3.45,25.3-2.85,32.18-13,6.65-10,6.07-22.81,3.2-29.11a37.14,37.14,0,0,1,14.49-.82c16.63,1.9,20,12.35,19.24,16.63a11.43,11.43,0,0,1-5.34,7.47c-1.19.72-1.54,1-1.43,1.43.12.71.72.71,1.66.6,1.31-.24,8.68-3.57,9-11.65.36-10.21-9.39-21.6-26.72-21.37-7.12.12-11.64.72-14.84,2a3,3,0,0,0-.83-.83C67.67,105.44,47.84,97.37,48.67,82.05c.24-5.58,2.26-20.3,38-38.11C116,29.32,139.4,33.37,143.44,42.28c5.81,12.69-12.47,36.33-43,39.77-11.64,1.3-17.7-3.2-19.25-4.87s-1.89-1.9-2.48-1.54c-1,.48-.36,2,0,3,1,2.38,4.63,6.53,11,8.67,5.57,1.78,19.23,2.84,35.62-3.56,18.4-7.12,32.77-27,28.61-43.58Z"/></g></g></svg>