<svg xmlns="http://www.w3.org/2000/svg" viewBox="0 0 180 180"><g id="Layer_2" data-name="Layer 2"><g id="WordPress"><path d="M161,51.19a81,81,0,0,1-30.34,108.75l24.71-71.45c4.61-11.55,6.15-20.79,6.15-29a63.67,63.67,0,0,0-.52-8.33M101.16,52c4.85-.23,9.24-.79,9.24-.79,4.37-.56,3.86-7-.5-6.74,0,0-13.17,1-21.6,1-8,0-21.38-1.13-21.38-1.13-4.38-.22-5,6.42-.56,6.64,0,0,4,.46,8.44.68L87.4,86.17l-17.78,53.1L40.16,51.75C45,51.52,49.41,51,49.41,51c4.39-.56,3.87-7-.49-6.72,0,0-13.09,1-21.55,1-1.5,0-3.29-.06-5.18-.12A82.09,82.09,0,0,1,90,9.11a80.52,80.52,0,0,1,54.64,21.25c-.34,0-.68-.07-1-.07-8,0-13.59,6.92-13.59,14.36,0,6.67,3.84,12.32,7.95,19C141,69,144.62,76,144.62,86c0,6.86-2.65,15-6.16,26.09l-8.06,26.89L101.15,51.86ZM90,170.88a81,81,0,0,1-22.86-3.28L91.42,97.06l24.86,68.15a11.78,11.78,0,0,0,.58,1.12A81.13,81.13,0,0,1,90,170.89M9.08,90a80.48,80.48,0,0,1,7-32.92L54.67,162.82A81,81,0,0,1,9.08,90M90,0a90,90,0,1,0,90,90A90.12,90.12,0,0,0,90,0"/></g></g></svg>